#!OML:ASF E:\Style4\Style4.ASF
:FULLY-SPECIFIED
:DEGREES
1529
root -0.0802 17.0845 -3.06579 6.04886 1.73998 3.71343
lowerback 22.7759 2.57162 -0.0505186
upperback 10.9383 3.26613 -1.5045
thorax -0.631141 1.68369 -2.3152
lowerneck 8.53601 -7.67275 -3.15041
upperneck 4.40127 -10.4336 5.69327
head 0.447809 -5.25378 2.52297
rclavicle -7.35503e-014 6.99722e-014
rhumerus -7.72211 70.3451 -98.9516
rradius 116.872
rwrist -67.9959
rhand 18.4741 -1.38973
rfingers 7.12502
rthumb 43.111 -25.5963
lclavicle -7.35503e-014 6.99722e-014
lhumerus 70.3268 2.47495 55.1444
lradius 129.387
lwrist 46.9195
lhand -11.0579 23.2844
lfingers 7.12502
lthumb 14.9647 52.7237
rfemur -35.6732 -3.00222 16.5626
rtibia 50.9924
rfoot -20.4674 -12.1008
rtoes -6.47472
lfemur -33.7067 0.852059 -22.9226
ltibia 46.7565
lfoot -18.8465 5.82695
ltoes -12.4329
1530
root -0.0788487 17.1 -3.06411 6.11292 1.71415 3.6504
lowerback 22.7434 2.55271 -0.0369011
upperback 10.9318 3.24584 -1.45871
thorax -0.625608 1.67235 -2.26798
lowerneck 8.7007 -7.50572 -3.51656
upperneck 4.08726 -10.2432 6.07612
head 0.350572 -5.17369 2.72718
rclavicle -4.81059e-014 3.33958e-014
rhumerus -7.90335 70.4891 -98.7429
rradius 116.859
rwrist -68.2064
rhand 18.148 -0.987761
rfingers 7.12502
rthumb 42.806 -25.3019
lclavicle -4.81059e-014 3.33958e-014
lhumerus 70.7222 2.80753 55.3645
lradius 129.102
lwrist 47.5232
lhand -10.4408 23.3255
lfingers 7.12502
lthumb 15.5591 52.7196
rfemur -35.5932 -3.00619 16.6231
rtibia 50.7218
rfoot -20.3221 -12.0786
rtoes -6.63023
lfemur -33.6442 0.821741 -22.8566
ltibia 46.5179
lfoot -18.6762 5.83791
ltoes -12.074
1531
root -0.0783115 17.1171 -3.06432 6.20978 1.66045 3.64965
lowerback 22.6969 2.56063 -0.123819
upperback 10.8945 3.23971 -1.42261
thorax -0.65143 1.66402 -2.17777
lowerneck 8.75549 -7.34943 -3.82147
upperneck 3.96103 -10.0651 6.3666
head 0.322615 -5.09443 2.88141
rclavicle 0 1.59028e-014
rhumerus -8.03957 70.6658 -98.4998
rradius 116.84
rwrist -68.2601
rhand 17.9807 -0.900451
rfingers 7.12502
rthumb 42.6496 -25.2691
lclavicle 0 1.59028e-014
lhumerus 71.2577 2.96625 55.5346
lradius 128.662
lwrist 48.0082
lhand -9.73893 23.4392
lfingers 7.12502
lthumb 16.235 52.7794
rfemur -35.563 -2.97397 16.6244
rtibia 50.4508
rfoot -20.1653 -12.0804
rtoes -6.96899
lfemur -33.6075 0.820645 -22.8551
ltibia 46.2648
lfoot -18.5385 5.85826
ltoes -11.8456
1532
root -0.0796365 17.1328 -3.0686 6.36346 1.65088 3.59546
lowerback 22.5228 2.59409 -0.237373
upperback 10.8383 3.26435 -1.36029
thorax -0.637641 1.66947 -2.04567
lowerneck 9.132 -7.24611 -3.81536
upperneck 3.6308 -9.92176 6.45363
head 0.14869 -5.03298 2.93618
rclavicle 1.86858e-014 -1.86858e-014
rhumerus -8.14855 70.7944 -98.2608
rradius 116.811
rwrist -68.292
rhand 18.0149 -1.01287
rfingers 7.12502
rthumb 42.6815 -25.3704
lclavicle 1.86858e-014 -1.86858e-014
lhumerus 71.5882 3.07044 55.6044
lradius 128.382
lwrist 48.3088
lhand -9.25326 23.5589
lfingers 7.12502
lthumb 16.7026 52.8603
rfemur -35.6153 -2.95071 16.6956
rtibia 50.1975
rfoot -20.0461 -12.0738
rtoes -6.95109
lfemur -33.6651 0.848484 -22.7946
ltibia 46.0286
lfoot -18.4163 5.89822
ltoes -12.1397
1533
root -0.0824879 17.1464 -3.0725 6.55369 1.6705 3.53618
lowerback 22.3553 2.59839 -0.307062
upperback 10.7917 3.26036 -1.30192
thorax -0.614668 1.66271 -1.93633
lowerneck 9.08811 -7.14138 -3.80217
upperneck 3.53578 -9.77866 6.41377
head 0.114268 -4.96196 2.91967
rclavicle 2.06736e-014 -1.98785e-014
rhumerus -7.76078 71.012 -97.5338
rradius 116.805
rwrist -68.3777
rhand 17.8515 -1.02476
rfingers 7.12502
rthumb 42.5286 -25.4352
lclavicle 2.06736e-014 -1.98785e-014
lhumerus 71.618 3.33172 55.7198
lradius 128.405
lwrist 48.8042
lhand -8.72351 23.6149
lfingers 7.12502
lthumb 17.2126 52.8726
rfemur -35.7125 -2.94969 16.7836
rtibia 49.9693
rfoot -19.9081 -12.1208
rtoes -7.04079
lfemur -33.7621 0.906054 -22.7228
ltibia 45.8117
lfoot -18.2627 5.76403
ltoes -11.8835
